<svg width="174" height="524" viewBox="0 0 174 524" fill="none" xmlns="http://www.w3.org/2000/svg">
<g clip-path="url(#clip0_135_205)">
<path fill-rule="evenodd" clip-rule="evenodd" d="M58.6151 80.8829C58.2052 79.8168 57.6674 78.7874 56.9876 77.8019C54.6029 74.3433 49.3434 73.4982 44.4953 74.6316C39.649 75.7643 35.3141 78.8534 34.6822 82.8602C34.3205 85.1512 34.7777 86.8421 35.7208 88.062C36.6594 89.2752 38.1047 90.035 39.8237 90.4083C44.6157 91.4469 51.5985 89.4442 54.3183 87.2678C55.5759 86.2603 56.7643 85.1672 57.8855 84.0044C58.6978 88.6096 57.2999 93.772 54.7803 98.8885C49.3047 110.009 38.465 120.914 32.165 125.777C31.8265 126.039 31.7653 126.527 32.0268 126.869C32.2883 127.212 32.7746 127.278 33.1131 127.016C39.5377 122.057 50.5844 110.928 56.168 99.5877C59.053 93.7298 60.4658 87.8127 59.1642 82.6197C67.2085 73.5051 71.8327 60.6464 75.8347 49.7844C75.9842 49.383 75.7784 48.9321 75.3769 48.78C74.9761 48.6298 74.5304 48.832 74.3816 49.2353C70.5425 59.6531 66.1713 71.9736 58.6151 80.8829ZM57.4451 82.2065C57.0557 80.9817 56.4873 79.8019 55.7153 78.6847C53.6519 75.691 49.05 75.1679 44.8532 76.1493C42.281 76.7517 39.8445 77.9359 38.1908 79.5617C37.1507 80.5834 36.4237 81.7771 36.2135 83.1139C35.9366 84.8678 36.2194 86.176 36.9418 87.1079C37.667 88.0473 38.8097 88.5954 40.1413 88.8829C44.5086 89.8304 50.8737 88.0263 53.3491 86.0449C54.8095 84.8766 56.1701 83.5898 57.4451 82.2065Z" fill="#FFEB34"/>
<path fill-rule="evenodd" clip-rule="evenodd" d="M85.9761 113.972C86.2441 112.862 86.3859 111.709 86.3858 110.512C86.3866 106.311 82.537 102.629 77.9026 100.809C73.2701 98.9898 67.9479 99.0713 65.1527 102.011C63.5541 103.691 62.9704 105.343 63.054 106.882C63.1377 108.414 63.8961 109.86 65.0992 111.143C68.4541 114.719 75.3392 117.036 78.8138 116.788C80.4211 116.673 82.02 116.448 83.6032 116.127C81.657 120.38 77.5751 123.835 72.5959 126.616C61.7745 132.661 46.6596 135.483 38.7123 135.91C38.2853 135.932 37.9575 136.3 37.9785 136.73C37.9994 137.16 38.3621 137.491 38.7891 137.468C46.8937 137.033 62.3058 134.145 73.3413 127.98C79.0421 124.796 83.5649 120.727 85.442 115.714C97.239 112.778 108.347 104.819 117.808 98.1502C118.159 97.9046 118.246 97.4166 118.002 97.0635C117.757 96.7122 117.276 96.6256 116.924 96.8731C107.849 103.269 97.2548 110.929 85.9761 113.972ZM84.2615 114.397C84.6364 113.168 84.8384 111.874 84.8372 110.516C84.8385 106.88 81.3474 103.837 77.3355 102.262C74.8762 101.297 72.1981 100.888 69.9137 101.288C68.4774 101.538 67.2012 102.108 66.2691 103.089C65.0453 104.376 64.5353 105.613 64.6008 106.79C64.6644 107.975 65.2938 109.075 66.2267 110.068C69.2837 113.328 75.5476 115.457 78.7104 115.231C80.5759 115.099 82.4265 114.812 84.2615 114.397Z" fill="#FFEB34"/>
</g>
<defs>
<clipPath id="clip0_135_205">
<rect width="173.239" height="524" fill="white"/>
</clipPath>
</defs>
</svg>
