<svg width="83" height="382" viewBox="0 0 83 382" fill="none" xmlns="http://www.w3.org/2000/svg">
<path d="M10.641 4.8718C10.641 5.83535 10.329 6.77726 9.74436 7.57842C9.15974 8.37958 8.32878 9.00401 7.35659 9.37275C6.38439 9.74148 5.31461 9.83796 4.28253 9.64998C3.25046 9.462 2.30243 8.99801 1.55834 8.31668C0.814258 7.63534 0.307528 6.76727 0.102235 5.82224C-0.103059 4.8772 0.00230529 3.89765 0.405002 3.00744C0.807699 2.11724 1.48964 1.35637 2.3646 0.821048C3.23955 0.285728 4.26822 2.63344e-06 5.32052 2.63344e-06C6.7316 2.63344e-06 8.0849 0.51328 9.08269 1.42692C10.0805 2.34056 10.641 3.57972 10.641 4.8718ZM41.5 2.63344e-06C40.4477 2.63344e-06 39.419 0.285728 38.5441 0.821048C37.6691 1.35637 36.9872 2.11724 36.5845 3.00744C36.1818 3.89765 36.0764 4.8772 36.2817 5.82224C36.487 6.76727 36.9937 7.63534 37.7378 8.31668C38.4819 8.99801 39.4299 9.462 40.462 9.64998C41.4941 9.83796 42.5639 9.74148 43.5361 9.37275C44.5083 9.00401 45.3392 8.37958 45.9238 7.57842C46.5085 6.77726 46.8205 5.83535 46.8205 4.8718C46.8205 3.57972 46.26 2.34056 45.2622 1.42692C44.2644 0.51328 42.9111 2.63344e-06 41.5 2.63344e-06ZM77.6795 9.74359C78.7318 9.74359 79.7605 9.45787 80.6354 8.92255C81.5104 8.38723 82.1923 7.62636 82.595 6.73615C82.9977 5.84595 83.1031 4.86639 82.8978 3.92136C82.6925 2.97632 82.1857 2.10825 81.4417 1.42692C80.6976 0.745586 79.7495 0.281592 78.7175 0.0936124C77.6854 -0.0943669 76.6156 0.00211087 75.6434 0.370845C74.6712 0.73958 73.8403 1.36401 73.2556 2.16517C72.671 2.96634 72.359 3.90825 72.359 4.8718C72.359 6.16388 72.9195 7.40304 73.9173 8.31668C74.9151 9.23032 76.2684 9.74359 77.6795 9.74359ZM5.32052 33.1282C4.26822 33.1282 3.23955 33.4139 2.3646 33.9493C1.48964 34.4846 0.807699 35.2454 0.405002 36.1356C0.00230529 37.0259 -0.103059 38.0054 0.102235 38.9504C0.307528 39.8955 0.814258 40.7636 1.55834 41.4449C2.30243 42.1262 3.25046 42.5902 4.28253 42.7782C5.31461 42.9662 6.38439 42.8697 7.35659 42.501C8.32878 42.1322 9.15974 41.5078 9.74436 40.7066C10.329 39.9055 10.641 38.9636 10.641 38C10.641 36.7079 10.0805 35.4688 9.08269 34.5551C8.0849 33.6415 6.7316 33.1282 5.32052 33.1282ZM41.5 33.1282C40.4477 33.1282 39.419 33.4139 38.5441 33.9493C37.6691 34.4846 36.9872 35.2454 36.5845 36.1356C36.1818 37.0259 36.0764 38.0054 36.2817 38.9504C36.487 39.8955 36.9937 40.7636 37.7378 41.4449C38.4819 42.1262 39.4299 42.5902 40.462 42.7782C41.4941 42.9662 42.5639 42.8697 43.5361 42.501C44.5083 42.1322 45.3392 41.5078 45.9238 40.7066C46.5085 39.9055 46.8205 38.9636 46.8205 38C46.8205 36.7079 46.26 35.4688 45.2622 34.5551C44.2644 33.6415 42.9111 33.1282 41.5 33.1282ZM77.6795 33.1282C76.6272 33.1282 75.5985 33.4139 74.7236 33.9493C73.8486 34.4846 73.1667 35.2454 72.764 36.1356C72.3613 37.0259 72.2559 38.0054 72.4612 38.9504C72.6665 39.8955 73.1732 40.7636 73.9173 41.4449C74.6614 42.1262 75.6094 42.5902 76.6415 42.7782C77.6736 42.9662 78.7434 42.8697 79.7156 42.501C80.6878 42.1322 81.5187 41.5078 82.1033 40.7066C82.688 39.9055 83 38.9636 83 38C83 36.7079 82.4394 35.4688 81.4417 34.5551C80.4439 33.6415 79.0906 33.1282 77.6795 33.1282ZM5.32052 66.2564C4.26822 66.2564 3.23955 66.5421 2.3646 67.0775C1.48964 67.6128 0.807699 68.3736 0.405002 69.2639C0.00230529 70.1541 -0.103059 71.1336 0.102235 72.0786C0.307528 73.0237 0.814258 73.8918 1.55834 74.5731C2.30243 75.2544 3.25046 75.7184 4.28253 75.9064C5.31461 76.0944 6.38439 75.9979 7.35659 75.6292C8.32878 75.2604 9.15974 74.636 9.74436 73.8348C10.329 73.0337 10.641 72.0918 10.641 71.1282C10.641 69.8361 10.0805 68.597 9.08269 67.6833C8.0849 66.7697 6.7316 66.2564 5.32052 66.2564ZM41.5 66.2564C40.4477 66.2564 39.419 66.5421 38.5441 67.0775C37.6691 67.6128 36.9872 68.3736 36.5845 69.2639C36.1818 70.1541 36.0764 71.1336 36.2817 72.0786C36.487 73.0237 36.9937 73.8918 37.7378 74.5731C38.4819 75.2544 39.4299 75.7184 40.462 75.9064C41.4941 76.0944 42.5639 75.9979 43.5361 75.6292C44.5083 75.2604 45.3392 74.636 45.9238 73.8348C46.5085 73.0337 46.8205 72.0918 46.8205 71.1282C46.8205 69.8361 46.26 68.597 45.2622 67.6833C44.2644 66.7697 42.9111 66.2564 41.5 66.2564ZM77.6795 66.2564C76.6272 66.2564 75.5985 66.5421 74.7236 67.0775C73.8486 67.6128 73.1667 68.3736 72.764 69.2639C72.3613 70.1541 72.2559 71.1336 72.4612 72.0786C72.6665 73.0237 73.1732 73.8918 73.9173 74.5731C74.6614 75.2544 75.6094 75.7184 76.6415 75.9064C77.6736 76.0944 78.7434 75.9979 79.7156 75.6292C80.6878 75.2604 81.5187 74.636 82.1033 73.8348C82.688 73.0337 83 72.0918 83 71.1282C83 69.8361 82.4394 68.597 81.4417 67.6833C80.4439 66.7697 79.0906 66.2564 77.6795 66.2564Z" fill="#FFD700"/>
</svg>
