<svg width="148" height="382" viewBox="0 0 148 382" fill="none" xmlns="http://www.w3.org/2000/svg">
<g clip-path="url(#clip0_135_201)">
<g filter="url(#filter0_f_135_201)">
<path d="M59.0977 120.502C26.4185 113.842 -2.19766 91.9698 0.133131 58.6698C2.30987 27.5708 33.1252 0 68.5742 0C104.023 0 145.308 18.1881 147.896 58.6698C150.593 100.867 100.492 128.937 59.0977 120.502Z" fill="#0066FF"/>
<path d="M59.0977 120.502C26.4185 113.842 -2.19766 91.9698 0.133131 58.6698C2.30987 27.5708 33.1252 0 68.5742 0C104.023 0 145.308 18.1881 147.896 58.6698C150.593 100.867 100.492 128.937 59.0977 120.502Z" stroke="black"/>
</g>
</g>
<defs>
<filter id="filter0_f_135_201" x="-150.5" y="-150.5" width="449" height="423" filterUnits="userSpaceOnUse" color-interpolation-filters="sRGB">
<feFlood flood-opacity="0" result="BackgroundImageFix"/>
<feBlend mode="normal" in="SourceGraphic" in2="BackgroundImageFix" result="shape"/>
<feGaussianBlur stdDeviation="75" result="effect1_foregroundBlur_135_201"/>
</filter>
<clipPath id="clip0_135_201">
<rect width="148" height="382" fill="white"/>
</clipPath>
</defs>
</svg>
