<svg width="279" height="817" viewBox="0 0 279 817" fill="none" xmlns="http://www.w3.org/2000/svg">
<g clip-path="url(#clip0_135_211)">
<path d="M117.777 10.6563C136.335 4.35611 156.16 0.969752 175.099 7.19119C189.287 11.8376 202.841 21.6816 211.075 37.1171C218.042 50.1113 220.956 66.098 219.056 81.5335C216.902 99.489 208.732 114.295 198.724 127.052C177.315 154.301 149.32 171.469 126.708 196.985C102.766 223.997 83.5739 266.287 94.3415 307.395C103.969 344.173 134.435 365.042 159.961 382.525C181.369 397.094 203.348 410.797 223.68 427.729C242.618 443.558 263.013 464.27 269.03 493.015C276.441 528.768 256.616 562.553 233.94 581.769C205.185 606.103 169.461 617.68 135.195 621.381C117.524 623.271 99.662 623.429 81.9904 622.09C64.1922 620.751 46.5207 619.019 28.9124 615.081C20.6784 613.191 12.5077 610.986 4.33695 608.623C-0.0334364 607.363 -1.87026 615.869 2.50012 616.971C20.235 621.303 38.1599 625.161 56.0215 628.548C74.0097 631.934 91.998 633.824 110.24 633.903C146.533 634.061 183.333 625.87 216.396 606.733C245.785 589.723 274.161 560.585 278.531 518.137C281.825 486.636 267.32 459.466 249.078 439.463C229.95 418.358 207.148 403.237 184.789 388.195C172.818 380.163 160.721 372.13 149.003 363.546C135.639 353.781 122.464 342.755 112.456 327.871C101.499 311.569 97.2551 290.936 100.169 270.067C103.146 248.804 112.013 229.903 123.731 214.231C145.139 185.565 174.085 168.161 197.267 142.094C208.478 129.494 218.676 114.452 223.616 96.4177C227.86 80.8247 227.797 63.6567 222.793 48.3787C217.662 32.707 208.098 19.9491 196.254 11.8376C180.546 1.20601 161.797 -0.920306 144.316 1.75728C135.195 3.17482 126.264 5.93116 117.587 9.71127C117.017 9.86878 117.27 10.8926 117.777 10.6563Z" fill="#FFD700" fill-opacity="0.1"/>
</g>
<defs>
<clipPath id="clip0_135_211">
<rect width="279" height="816.293" fill="white" transform="translate(0 0.707397)"/>
</clipPath>
</defs>
</svg>
